<svg class="icon-PIRQLq" width="18" height="18" fill="none" viewBox="0 0 20 20" style="min-width: 18px; min-height: 18px;"><g><path fill="currentColor" d="M10.055 1.719c-4.564 0-8.227 3.8-8.227 8.44 0 .721.147 1.365.284 1.926l.038.155v.001c.126.512.232.945.264 1.404.01.133-.017.33-.092.606-.067.247-.158.503-.256.779l-.029.08c-.1.285-.217.617-.275.915-.03.151-.054.333-.039.522.016.192.075.438.255.657.194.235.448.326.617.365.176.04.354.046.506.04.307-.011.652-.074.969-.144.725-.162.98-.216 1.1-.223l.03-.001.12-.007h.036l.035.004.119.018.029.005c.034.005.144.032.41.116.25.078.589.19 1.054.343.932.307 2.04.561 2.74.561 4.616 0 8.538-3.405 8.538-8.121 0-4.641-3.662-8.441-8.226-8.441Zm-6.664 8.44c0-3.82 3.004-6.878 6.664-6.878 3.66 0 6.664 3.059 6.664 6.879 0 3.744-3.11 6.559-6.977 6.559-.445 0-1.36-.19-2.25-.483l-.007-.002c-.456-.15-.807-.267-1.069-.349a4.966 4.966 0 0 0-.632-.168l-.037-.006h-.001a2.896 2.896 0 0 0-.313-.038 2.86 2.86 0 0 0-.315.007l-.038.002c-.267.016-.662.104-1.24.233l-.11.025a6.74 6.74 0 0 1-.349.069 13.344 13.344 0 0 1 .159-.46v-.001c.095-.266.206-.578.29-.886.091-.336.17-.733.143-1.126-.042-.6-.181-1.165-.303-1.659v-.001l-.04-.162c-.135-.552-.239-1.037-.239-1.554Zm2.859 1.013a1.172 1.172 0 1 0 0-2.344 1.172 1.172 0 0 0 0 2.344ZM11.172 10a1.172 1.172 0 1 1-2.344 0 1.172 1.172 0 0 1 2.344 0Zm2.578 1.172a1.172 1.172 0 1 0 0-2.344 1.172 1.172 0 0 0 0 2.344Z" clip-rule="evenodd" fill-rule="evenodd" data-follow-fill="#55555D"></path></g></svg>