<svg class="icon-PIRQLq" width="12" height="12" fill="none" viewBox="0 0 12 12" style="min-width: 12px; min-height: 12px;"><g><path fill="currentColor" d="M.207 6c0-.333.27-.603.603-.603h10.38a.603.603 0 1 1 0 1.207H.81A.603.603 0 0 1 .207 6Z" data-follow-fill="#6841EA"></path><path fill="currentColor" d="M6 11.793a.603.603 0 0 1-.603-.603V.81a.603.603 0 1 1 1.207 0v10.38c0 .333-.27.603-.604.603Z" data-follow-fill="#6841EA"></path><path stroke-width=".331" stroke="currentColor" d="M.207 6c0-.333.27-.603.603-.603h10.38a.603.603 0 1 1 0 1.207H.81A.603.603 0 0 1 .207 6Z" data-follow-stroke="#6841EA"></path><path stroke-width=".331" stroke="currentColor" d="M6 11.793a.603.603 0 0 1-.603-.603V.81a.603.603 0 1 1 1.207 0v10.38c0 .333-.27.603-.604.603Z" data-follow-stroke="#6841EA"></path></g></svg>