<svg class="icon-PIRQLq" width="16" height="16" fill="none" viewBox="0 0 16 16" style="min-width: 16px; min-height: 16px; margin-right: 4px;"><g><path fill="#6841EA" d="M8.031 1.375a6.656 6.656 0 1 0 0 13.313h2.219a4.437 4.437 0 0 0 4.438-4.438V8.031A6.656 6.656 0 0 0 8.03 1.375ZM4.375 5a.875.875 0 0 0-.875.875v1.75a.875.875 0 1 0 1.75 0v-1.75A.875.875 0 0 0 4.375 5ZM8.25 5a.875.875 0 0 0-.875.875v1.75a.875.875 0 1 0 1.75 0v-1.75A.875.875 0 0 0 8.25 5Z" clip-rule="evenodd" fill-rule="evenodd" data-follow-fill="#6841EA"></path></g></svg>