<svg class="icon-PIRQLq" width="16" height="16" fill="none" viewBox="0 0 20 20" style="min-width: 16px; min-height: 16px;"><g><path data-follow-fill="currentColor" fill-rule="evenodd" clip-rule="evenodd" d="M12.344 2.5c0-.431.35-.781.781-.781h1.25a3.906 3.906 0 0 1 3.906 3.906v1.25a.781.781 0 1 1-1.562 0v-1.25a2.344 2.344 0 0 0-2.344-2.344h-1.25a.781.781 0 0 1-.781-.781Zm2.801 7.546c-.379-.882-1.63-.882-2.01 0l-3.072 7.145a.781.781 0 0 0 1.436.617l.605-1.406a.794.794 0 0 0 .084.004h3.991l.603 1.402a.781.781 0 1 0 1.436-.617l-3.073-7.144Zm.362 4.798-1.366-3.179-1.367 3.179h2.733ZM6.875 18.28a.781.781 0 1 0 0-1.562h-1.25a2.344 2.344 0 0 1-2.344-2.344v-1.25a.781.781 0 1 0-1.562 0v1.25a3.906 3.906 0 0 0 3.906 3.906h1.25ZM6.209 1.72c.432 0 .782.35.782.781v.376h2.86a.781.781 0 1 1 0 1.563H8.835a6.76 6.76 0 0 1-1.64 3.712c.002 0 .003.002.005.003a5.63 5.63 0 0 0 3.19.987.781.781 0 1 1 0 1.562A7.193 7.193 0 0 1 5.997 9.21 6.202 6.202 0 0 1 2.5 10.295a.781.781 0 0 1 0-1.563c.827 0 1.634-.224 2.348-.644a6.87 6.87 0 0 1-1.126-1.984.781.781 0 0 1 1.468-.535 5.3 5.3 0 0 0 .859 1.52 5.191 5.191 0 0 0 1.21-2.65H2.5a.781.781 0 0 1 0-1.563h2.928V2.5c0-.431.35-.781.781-.781Z" fill="currentColor"></path></g></svg>