<svg class="icon-PIRQLq" width="18" height="18" fill="none" viewBox="0 0 20 20" style="min-width: 18px; min-height: 18px;"><g><path data-follow-fill="#545C66" fill="currentColor" d="M4.375 3.281c-.604 0-1.094.49-1.094 1.094v8.94c0 .604.49 1.094 1.094 1.094h3.257c.57 0 1.115.136 1.587.39V5.625a2.344 2.344 0 0 0-2.344-2.344h-2.5Zm5.625 0a3.9 3.9 0 0 0-3.125-1.562h-2.5a2.656 2.656 0 0 0-2.656 2.656v8.94a2.656 2.656 0 0 0 2.656 2.656h3.257c.928 0 1.587.59 1.587 1.529a.781.781 0 1 0 1.562 0c0-.939.659-1.529 1.587-1.529h3.257a2.656 2.656 0 0 0 2.656-2.656v-8.94a2.656 2.656 0 0 0-2.656-2.656h-2.5A3.9 3.9 0 0 0 10 3.28Zm.781 11.518a3.346 3.346 0 0 1 1.587-.39h3.257c.604 0 1.094-.49 1.094-1.094v-8.94c0-.604-.49-1.094-1.094-1.094h-2.5a2.344 2.344 0 0 0-2.344 2.344v9.174Z" clip-rule="evenodd" fill-rule="evenodd"></path></g></svg>