<svg fill="none" width="18" height="18" viewBox="0 0 16 16" style="min-width: 18px; min-height: 18px; color: currentcolor;"><g id="settings">
<path id="Vector" fill-rule="evenodd" clip-rule="evenodd" d="M7.59811 0.982189C7.86312 0.925859 8.13702 0.925859 8.40203 0.982189C8.70402 1.04638 8.97778 1.20482 9.30278 1.39292C9.32388 1.40512 9.34519 1.41746 9.36674 1.4299L13.0069 3.53155C13.0285 3.54399 13.0498 3.55628 13.0709 3.56845C13.3963 3.75586 13.6704 3.91372 13.877 4.14316C14.0583 4.3445 14.1952 4.5817 14.2789 4.83938C14.3744 5.133 14.374 5.4493 14.3736 5.82481C14.3736 5.84918 14.3736 5.87381 14.3736 5.89869V10.102C14.3736 10.1269 14.3736 10.1515 14.3736 10.1759C14.374 10.5514 14.3744 10.8677 14.2789 11.1613C14.1952 11.419 14.0583 11.6562 13.877 11.8575C13.6704 12.087 13.3963 12.2448 13.0709 12.4322C13.0498 12.4444 13.0285 12.4567 13.0069 12.4691L9.36674 14.5708C9.34518 14.5832 9.32387 14.5956 9.30277 14.6078C8.97777 14.7959 8.70401 14.9543 8.40203 15.0185C8.13702 15.0748 7.86312 15.0748 7.59811 15.0185C7.29612 14.9543 7.02236 14.7959 6.69736 14.6078C6.67627 14.5956 6.65495 14.5832 6.6334 14.5708L2.99323 12.4691C2.97169 12.4567 2.95035 12.4444 2.92923 12.4322C2.60383 12.2448 2.32974 12.087 2.12315 11.8575C1.94186 11.6562 1.80491 11.419 1.72119 11.1613C1.62579 10.8677 1.62612 10.5514 1.62651 10.1759C1.62654 10.1515 1.62657 10.1269 1.62657 10.102V5.89869C1.62657 5.87381 1.62654 5.84918 1.62651 5.82481C1.62612 5.4493 1.62579 5.133 1.72119 4.83938C1.80491 4.5817 1.94186 4.3445 2.12315 4.14316C2.32973 3.91372 2.60383 3.75586 2.92923 3.56845C2.95035 3.55628 2.97168 3.54399 2.99323 3.53155L6.6334 1.4299C6.65495 1.41746 6.67626 1.40513 6.69735 1.39292C7.02236 1.20482 7.29612 1.04638 7.59811 0.982189ZM8.15254 2.15597C8.05201 2.1346 7.94812 2.1346 7.8476 2.15597C7.75606 2.17542 7.65704 2.22454 7.2334 2.46913L3.59323 4.57078C3.16959 4.81537 3.07755 4.87656 3.01493 4.94611C2.94616 5.02248 2.89422 5.11246 2.86246 5.2102C2.83354 5.2992 2.82657 5.40951 2.82657 5.89869V10.102C2.82657 10.5912 2.83354 10.7015 2.86246 10.7905C2.89422 10.8882 2.94616 10.9782 3.01493 11.0546C3.07755 11.1241 3.16959 11.1853 3.59323 11.4299L7.2334 13.5316C7.65705 13.7761 7.75606 13.8253 7.8476 13.8447C7.94812 13.8661 8.05201 13.8661 8.15254 13.8447C8.24408 13.8253 8.34309 13.7761 8.76674 13.5316L12.4069 11.4299C12.8305 11.1853 12.9226 11.1241 12.9852 11.0546C13.054 10.9782 13.1059 10.8882 13.1377 10.7905C13.1666 10.7015 13.1736 10.5912 13.1736 10.102V5.89869C13.1736 5.40951 13.1666 5.2992 13.1377 5.2102C13.1059 5.11246 13.054 5.02249 12.9852 4.94611C12.9226 4.87656 12.8305 4.81537 12.4069 4.57078L8.76674 2.46913C8.34309 2.22454 8.24408 2.17542 8.15254 2.15597ZM8.00007 6.60034C7.22687 6.60034 6.60007 7.22714 6.60007 8.00034C6.60007 8.77354 7.22687 9.40034 8.00007 9.40034C8.77327 9.40034 9.40007 8.77354 9.40007 8.00034C9.40007 7.22714 8.77327 6.60034 8.00007 6.60034ZM5.40007 8.00034C5.40007 6.5644 6.56413 5.40034 8.00007 5.40034C9.43601 5.40034 10.6001 6.5644 10.6001 8.00034C10.6001 9.43628 9.43601 10.6003 8.00007 10.6003C6.56413 10.6003 5.40007 9.43628 5.40007 8.00034Z" fill="currentColor"></path>
</g></svg>