<svg class="icon-PIRQLq" width="18" height="18" fill="none" viewBox="0 0 20 21" style="min-width: 18px; min-height: 18px;"><g><path fill="currentColor" d="M2.832 10.645a7.286 7.286 0 1 1 11.763 5.748.781.781 0 1 0 .96 1.232 8.848 8.848 0 1 0-10.877 0 .781.781 0 1 0 .962-1.232 7.272 7.272 0 0 1-2.808-5.748Zm3.246 0a4.039 4.039 0 1 1 6.815 2.934.781.781 0 0 0 1.074 1.134 5.601 5.601 0 1 0-7.7 0 .781.781 0 1 0 1.074-1.134 4.025 4.025 0 0 1-1.263-2.934Z" clip-rule="evenodd" fill-rule="evenodd" data-follow-fill="#6841EA"></path><path fill="currentColor" d="M10.12 12.65a2.027 2.027 0 1 0 0-4.054 2.027 2.027 0 0 0 0 4.054Zm-.548.692a.88.88 0 0 0-.793.5l-2.032 4.237a.66.66 0 0 0 .595.945h5.525a.66.66 0 0 0 .596-.942l-2.006-4.236a.88.88 0 0 0-.795-.504h-1.09Z" clip-rule="evenodd" fill-rule="evenodd" data-follow-fill="#6841EA"></path></g></svg>